<svg width="326" height="72" viewBox="0 0 326 72" fill="none" xmlns="http://www.w3.org/2000/svg">
<path fill-rule="evenodd" clip-rule="evenodd" d="M17.2016 6.37299H60.0744C65.674 6.37299 70.2133 10.9123 70.2133 16.5118C70.2133 18.5407 69.6174 20.4304 68.591 22.0154H75.6469C76.2553 20.294 76.5863 18.4416 76.5863 16.5118C76.5863 7.39261 69.1937 0 60.0744 0H17.2016C8.08234 0 0.689739 7.39261 0.689739 16.5118C0.689739 23.9158 5.56281 30.1815 12.2766 32.2767V25.3763C9.1666 23.6447 7.06273 20.324 7.06273 16.5118C7.06273 10.9123 11.6021 6.37299 17.2016 6.37299ZM2.35828 35.9203C1.28955 38.1068 0.689697 40.5643 0.689697 43.1619C0.689697 52.2812 8.08231 59.6738 17.2015 59.6738H60.0744C69.1936 59.6738 76.5863 52.2812 76.5863 43.1619C76.5863 34.0427 69.1936 26.6501 60.0744 26.6501H25.2848V33.0231H60.0744C65.6739 33.0231 70.2133 37.5624 70.2133 43.1619C70.2133 48.7615 65.6739 53.3008 60.0744 53.3008H17.2015C11.602 53.3008 7.06269 48.7615 7.06269 43.1619C7.06269 40.3252 8.22774 37.7605 10.1055 35.9203H2.35828ZM21.5467 19.6986V39.9763H54.5704V38.2387H60.9434V40.5557C60.9434 43.7554 58.3495 46.3493 55.1497 46.3493H20.9673C17.7676 46.3493 15.1737 43.7554 15.1737 40.5557V19.1193C15.1737 15.9195 17.7676 13.3257 20.9673 13.3257H55.1497C58.3495 13.3257 60.9434 15.9195 60.9434 19.1193V22.0165H54.5704V19.6986H21.5467Z" fill="white"/>
<path d="M118.873 52.7639C114.916 52.7639 111.547 51.8825 108.766 50.1197C106.024 48.3178 104.105 45.8303 103.008 42.6574L108.825 39.2494C110.47 43.8717 113.878 46.1829 119.049 46.1829C121.556 46.1829 123.456 45.6932 124.749 44.7139C126.041 43.7346 126.688 42.4223 126.688 40.7771C126.688 39.1319 126.002 37.8588 124.631 36.9578C123.26 36.0568 120.831 35.0775 117.345 34.0199C113.78 32.9622 110.901 31.7087 108.707 30.2593C106.044 28.379 104.712 25.6174 104.712 21.9743C104.712 18.3313 106.005 15.4521 108.59 13.3368C111.136 11.1823 114.25 10.1051 117.933 10.1051C121.184 10.1051 124.043 10.9081 126.511 12.5142C129.018 14.0811 130.938 16.2943 132.27 19.1539L126.57 22.4444C124.847 18.6055 121.967 16.6861 117.933 16.6861C115.974 16.6861 114.407 17.1561 113.232 18.0963C112.057 18.9972 111.469 20.2312 111.469 21.7981C111.469 23.3258 112.057 24.5401 113.232 25.4411C114.407 26.3029 116.581 27.2234 119.754 28.2028C121.713 28.8687 122.849 29.2604 123.162 29.3779C123.671 29.5346 124.69 29.9263 126.218 30.5531C127.471 31.0623 128.47 31.6108 129.214 32.1983C132.27 34.5879 133.68 37.4083 133.445 40.6596C133.445 44.381 132.093 47.3385 129.391 49.5321C126.766 51.6866 123.26 52.7639 118.873 52.7639ZM154.366 21.8568C157.774 21.8568 160.497 22.9537 162.534 25.1473C164.61 27.3018 165.648 30.2397 165.648 33.9611V52H159.302V34.6074C159.302 32.4138 158.714 30.7294 157.539 29.5542C156.364 28.379 154.758 27.7914 152.721 27.7914C150.41 27.7914 148.588 28.5161 147.256 29.9655C145.924 31.3757 145.259 33.4714 145.259 36.2527V52H138.913V10.869H145.259V26.3812C147.217 23.365 150.253 21.8568 154.366 21.8568ZM197.336 48.2982C194.359 51.2753 190.696 52.7639 186.348 52.7639C182 52.7639 178.337 51.2753 175.36 48.2982C172.344 45.2819 170.836 41.6193 170.836 37.3103C170.836 33.0014 172.344 29.3388 175.36 26.3225C178.337 23.3454 182 21.8568 186.348 21.8568C190.696 21.8568 194.359 23.3454 197.336 26.3225C200.352 29.3388 201.86 33.0014 201.86 37.3103C201.86 41.6193 200.352 45.2819 197.336 48.2982ZM177.181 37.3103C177.181 39.9741 178.063 42.1873 179.826 43.9501C181.588 45.7128 183.762 46.5942 186.348 46.5942C188.933 46.5942 191.107 45.7128 192.87 43.9501C194.633 42.1873 195.514 39.9741 195.514 37.3103C195.514 34.6466 194.633 32.4334 192.87 30.6706C191.107 28.9079 188.933 28.0265 186.348 28.0265C183.762 28.0265 181.588 28.9079 179.826 30.6706C178.063 32.4334 177.181 34.6466 177.181 37.3103ZM213.944 22.6207V27.5564C215.55 23.9134 218.567 22.0919 222.993 22.0919V28.9666C220.603 28.8099 218.488 29.3975 216.647 30.7294C214.845 32.0221 213.944 34.1766 213.944 37.1928V52H207.598V22.6207H213.944ZM244.821 22.6207V28.7316H237.535V42.8337C237.535 44.048 237.809 44.9294 238.358 45.4778C238.906 45.987 239.709 46.2808 240.767 46.3592C241.864 46.3983 243.215 46.3788 244.821 46.3004V52C239.964 52.5876 236.478 52.1763 234.362 50.7661C232.247 49.3167 231.189 46.6726 231.189 42.8337V28.7316H225.784V22.6207H231.189V16.2748L237.535 14.3945V22.6207H244.821ZM256.57 17.0386C255.787 17.8221 254.847 18.2138 253.75 18.2138C252.653 18.2138 251.693 17.8221 250.871 17.0386C250.087 16.216 249.696 15.2563 249.696 14.1594C249.696 13.0626 250.087 12.1225 250.871 11.339C251.654 10.5164 252.614 10.1051 253.75 10.1051C254.886 10.1051 255.846 10.5164 256.629 11.339C257.413 12.1225 257.804 13.0626 257.804 14.1594C257.804 15.2563 257.393 16.216 256.57 17.0386ZM256.923 52H250.577V22.6207H256.923V52ZM279.745 21.8568C283.153 21.8568 285.875 22.9537 287.912 25.1473C289.988 27.3018 291.026 30.2397 291.026 33.9611V52H284.68V34.6074C284.68 32.4138 284.093 30.7294 282.918 29.5542C281.742 28.379 280.136 27.7914 278.099 27.7914C275.788 27.7914 273.967 28.5161 272.635 29.9655C271.303 31.3757 270.637 33.4714 270.637 36.2527V52H264.291V22.6207H270.637V26.3812C272.596 23.365 275.632 21.8568 279.745 21.8568ZM310.434 37.0166L323.831 52H316.251L304.205 38.4268V52H297.859V10.869H304.205V35.6063L315.604 22.6207H323.361L310.434 37.0166Z" fill="white"/>
</svg>
